<svg width="36" height="36" viewBox="0 0 36 36" fill="none" xmlns="http://www.w3.org/2000/svg">
<path fill-rule="evenodd" clip-rule="evenodd" d="M21 10H11V26H21V19V10ZM23 19V26H25V19H23ZM25 28H28C28.5523 28 29 27.5523 29 27C29 26.4477 28.5523 26 28 26H27V19C27 17.8954 26.1046 17 25 17H23V10C23 8.89543 22.1046 8 21 8H11C9.89543 8 9 8.89543 9 10V26H8C7.44772 26 7 26.4477 7 27C7 27.5523 7.44772 28 8 28H11H21H23H25Z" fill="#333333"/>
<path fill-rule="evenodd" clip-rule="evenodd" d="M13.5 14.5C13.5 13.9477 13.9477 13.5 14.5 13.5H17.5C18.0523 13.5 18.5 13.9477 18.5 14.5C18.5 15.0523 18.0523 15.5 17.5 15.5H14.5C13.9477 15.5 13.5 15.0523 13.5 14.5ZM13.5 18C13.5 17.4477 13.9477 17 14.5 17H17.5C18.0523 17 18.5 17.4477 18.5 18C18.5 18.5523 18.0523 19 17.5 19H14.5C13.9477 19 13.5 18.5523 13.5 18ZM14.5 20.5C13.9477 20.5 13.5 20.9477 13.5 21.5C13.5 22.0523 13.9477 22.5 14.5 22.5H17.5C18.0523 22.5 18.5 22.0523 18.5 21.5C18.5 20.9477 18.0523 20.5 17.5 20.5H14.5Z" fill="#1168FF"/>
</svg>
