<svg width="36" height="36" viewBox="0 0 36 36" fill="none" xmlns="http://www.w3.org/2000/svg">
<path d="M10 10.591C10 10.1254 10.3214 9.72134 10.7751 9.61663L19.7751 7.53971C20.4018 7.39511 21 7.87102 21 8.5141V26.4859C21 27.129 20.4018 27.6049 19.7751 27.4603L10.7751 25.3834C10.3214 25.2787 10 24.8746 10 24.409V10.591Z" stroke="#333333" stroke-width="2"/>
<path fill-rule="evenodd" clip-rule="evenodd" d="M24.2929 13.6929C24.6834 13.3024 25.3166 13.3024 25.7071 13.6929L29.2426 17.2284C29.6332 17.619 29.6332 18.2521 29.2426 18.6426L25.7071 22.1782C25.3166 22.5687 24.6834 22.5687 24.2929 22.1782C23.9024 21.7877 23.9024 21.1545 24.2929 20.764L26.0569 19H17C16.4477 19 16 18.5523 16 18C16 17.4477 16.4477 17 17 17H26.1858L24.2929 15.1071C23.9024 14.7166 23.9024 14.0834 24.2929 13.6929Z" fill="#1168FF"/>
</svg>
