<svg width="36" height="36" viewBox="0 0 36 36" fill="none" xmlns="http://www.w3.org/2000/svg">
<path fill-rule="evenodd" clip-rule="evenodd" d="M23 13V14H13V13C13 10.2386 15.2386 8 18 8C20.7614 8 23 10.2386 23 13ZM11 14V13C11 9.13401 14.134 6 18 6C21.866 6 25 9.13401 25 13V14C26.1046 14 27 14.8954 27 16V26C27 27.1046 26.1046 28 25 28H11C9.89543 28 9 27.1046 9 26V16C9 14.8954 9.89543 14 11 14ZM25 16H23H13H11L11 26H25V16Z" fill="#333333"/>
<path fill-rule="evenodd" clip-rule="evenodd" d="M18.943 20.6665C19.2828 20.3915 19.5 19.9711 19.5 19.5C19.5 18.6716 18.8284 18 18 18C17.1716 18 16.5 18.6716 16.5 19.5C16.5 19.9711 16.7172 20.3915 17.057 20.6665C17.0201 20.7708 17 20.8831 17 21V23C17 23.5523 17.4477 24 18 24C18.5523 24 19 23.5523 19 23V21C19 20.8831 18.9799 20.7708 18.943 20.6665Z" fill="#1168FF"/>
</svg>
