<svg width="36" height="36" viewBox="0 0 36 36" fill="none" xmlns="http://www.w3.org/2000/svg">
<circle cx="18" cy="18" r="10" stroke="#333333" stroke-width="2"/>
<path fill-rule="evenodd" clip-rule="evenodd" d="M18 12C17.4477 12 17 12.4477 17 13V19C17 19.5523 17.4477 20 18 20C18.5523 20 19 19.5523 19 19V13C19 12.4477 18.5523 12 18 12ZM18 21.5C17.4477 21.5 17 21.9477 17 22.5V23C17 23.5523 17.4477 24 18 24C18.5523 24 19 23.5523 19 23V22.5C19 21.9477 18.5523 21.5 18 21.5Z" fill="#1168FF"/>
</svg>
