<svg width="36" height="36" viewBox="0 0 36 36" fill="none" xmlns="http://www.w3.org/2000/svg">
<path d="M10 9.5C10 8.94772 10.4477 8.5 11 8.5H25C25.5523 8.5 26 8.94771 26 9.5V22.7325C26 22.9796 25.9086 23.2179 25.7433 23.4015L22.3526 27.169C22.1629 27.3797 21.8928 27.5 21.6093 27.5H11C10.4477 27.5 10 27.0523 10 26.5V9.5Z" stroke="#333333" stroke-width="2"/>
<path fill-rule="evenodd" clip-rule="evenodd" d="M14.5 13C13.9477 13 13.5 13.4477 13.5 14C13.5 14.5523 13.9477 15 14.5 15H21.5C22.0523 15 22.5 14.5523 22.5 14C22.5 13.4477 22.0523 13 21.5 13H14.5ZM13.5 18C13.5 17.4477 13.9477 17 14.5 17H18.5C19.0523 17 19.5 17.4477 19.5 18C19.5 18.5523 19.0523 19 18.5 19H14.5C13.9477 19 13.5 18.5523 13.5 18ZM14.5 21C13.9477 21 13.5 21.4477 13.5 22C13.5 22.5523 13.9477 23 14.5 23H18.5C19.0523 23 19.5 22.5523 19.5 22C19.5 21.4477 19.0523 21 18.5 21H14.5Z" fill="#1168FF"/>
</svg>
