<svg width="185" height="168" viewBox="0 0 185 168" fill="none" xmlns="http://www.w3.org/2000/svg">
<path d="M16.675 153.38C17.875 153.38 18.49 152.75 18.49 151.49V139.925H17.005V151.115C17.005 151.7 16.705 152 16.135 152C15.505 152 14.845 151.955 14.125 151.895L14.47 153.38H16.675ZM12.97 143.405C12.415 146.015 11.56 148.1 10.42 149.66L11.665 150.755C12.79 149.195 13.705 146.93 14.395 143.975L12.97 143.405ZM22 143.03L20.695 143.84C21.745 146.42 22.585 148.745 23.215 150.83L24.505 149.945C23.92 147.965 23.08 145.67 22 143.03ZM41.9 140.195V144.74H48.485V140.195H41.9ZM47.105 143.465H43.295V141.455H47.105V143.465ZM41.435 145.895V147.185H44.39V148.745H41.78V150.02H44.39V151.685H40.865V153.035H49.34V151.685H45.83V150.02H48.515V148.745H45.83V147.185H48.98V145.895H41.435ZM35.825 143.69V145.055H37.73C37.25 146.57 36.5 147.92 35.45 149.12L36.08 150.71C36.815 149.66 37.415 148.49 37.895 147.23V153.485H39.26V147.035C39.62 147.545 40.025 148.19 40.505 148.97L41.3 147.77C40.61 147.02 39.935 146.315 39.26 145.685V145.055H40.985V143.69H39.26V141.65C39.98 141.515 40.655 141.365 41.3 141.185L40.805 139.835C39.35 140.285 37.7 140.6 35.84 140.75L36.125 142.085C36.725 142.025 37.325 141.95 37.895 141.875V143.69H35.825ZM68.265 139.61L66.825 139.85C67.02 140.15 67.2 140.48 67.365 140.825H61.8V145.64C61.77 148.61 61.35 150.92 60.54 152.585L61.62 153.545C62.625 151.565 63.15 148.925 63.21 145.64V142.145H74.16V140.825H68.82C68.64 140.375 68.445 139.97 68.265 139.61ZM66.825 144.74L65.985 145.565C67.005 146.075 67.89 146.57 68.61 147.05H63.69V148.355H67.98V151.73C67.98 152.12 67.785 152.33 67.425 152.33C66.765 152.33 66.09 152.285 65.37 152.225L65.67 153.575H67.905C68.895 153.575 69.39 153.065 69.39 152.06V148.355H72.39C71.91 149.09 71.385 149.705 70.815 150.215L71.88 151.07C72.63 150.29 73.305 149.33 73.935 148.16V147.05H70.095L70.29 146.855L69.795 146.495C70.845 145.835 71.805 145.025 72.705 144.095V143.075H64.56V144.29H70.92C70.245 144.86 69.525 145.355 68.745 145.805C68.16 145.445 67.515 145.1 66.825 144.74ZM86.605 140.495V141.875H89.245V145.145C89.245 145.235 89.23 145.355 89.23 145.475H85.825V146.855H89.125C89.005 147.92 88.81 148.85 88.525 149.63C88.09 150.71 87.265 151.61 86.065 152.315L86.83 153.515C88.165 152.84 89.125 151.865 89.695 150.605C90.145 149.6 90.43 148.355 90.58 146.855H94.6V153.35H96.025V146.855H99.19V145.475H96.025V141.875H98.425V140.495H86.605ZM90.685 141.875H94.6V145.475H90.67C90.67 145.37 90.685 145.265 90.685 145.145V141.875ZM118.055 145.715C118.49 147.08 119.03 148.31 119.66 149.39C118.82 150.53 117.68 151.475 116.27 152.195L117.08 153.5C118.43 152.72 119.555 151.775 120.47 150.635C121.37 151.895 122.45 152.885 123.71 153.59L124.52 152.39C123.275 151.7 122.195 150.725 121.28 149.465C122.3 147.755 122.855 145.67 122.975 143.24H123.98V141.86H119.795C119.975 141.245 120.125 140.6 120.245 139.91L118.85 139.67C118.43 142.115 117.65 144.065 116.495 145.535L117.365 146.6C117.605 146.33 117.83 146.03 118.055 145.715ZM119.33 143.24H121.64C121.535 145.1 121.13 146.735 120.425 148.13C119.81 147.02 119.285 145.745 118.865 144.305C119.03 143.975 119.18 143.615 119.33 143.24ZM110.78 141.845V143.21H112.22V144.425C112.19 148.16 111.605 150.875 110.45 152.555L111.56 153.53C112.64 151.94 113.27 149.585 113.48 146.435H115.055C115.04 149.255 114.995 150.92 114.905 151.4C114.815 151.88 114.53 152.12 114.05 152.12C113.705 152.12 113.315 152.09 112.88 152.045L113.195 153.275C113.705 153.32 114.05 153.35 114.26 153.35C115.4 153.35 116.045 152.915 116.195 152.045C116.33 151.175 116.405 148.865 116.405 145.115H113.54C113.54 144.89 113.555 144.665 113.555 144.425V143.21H117.08V141.845H114.92C114.68 141.155 114.365 140.405 113.975 139.565L112.595 139.94C112.925 140.555 113.21 141.185 113.48 141.845H110.78ZM146.955 153.425C148.08 153.425 148.65 152.855 148.65 151.715V140.36H141.63V141.68H147.27V151.325C147.27 151.85 147.06 152.12 146.67 152.12L145.365 152.09L145.725 153.425H146.955ZM136.32 142.19V153.56H137.7V142.19H136.32ZM138.825 139.55L137.535 140.12C138.195 140.93 138.81 141.845 139.38 142.895L140.655 142.22C140.13 141.26 139.515 140.36 138.825 139.55ZM171.76 142.82V145.37H163.585V142.82H171.76ZM163.57 146.765H173.2V141.425H168.445C168.205 140.75 167.965 140.135 167.71 139.58L166.18 139.82C166.48 140.315 166.75 140.855 166.99 141.425H162.175V146.33C162.16 148.91 161.575 151.025 160.435 152.66L161.485 153.62C162.79 151.7 163.48 149.405 163.57 146.765Z" fill="white"/>
<path fill-rule="evenodd" clip-rule="evenodd" d="M78.2139 55.4358C78.2139 67.2523 87.8747 72.1776 95.1807 72.1776C98.0461 72.1776 101.453 71.1487 105.023 70.0707C113.437 67.5301 122.752 64.7171 128 74.4605C121.566 72.0277 117.986 73.835 113.122 76.2909C107.886 78.9349 101.16 82.3307 87.7801 81.9964C62.1197 81.3623 57.8202 62.6546 58.2827 56.4293C54.5193 51.3455 48.622 31.359 70.992 28.8012C72.9263 20.0499 80.8105 14.4693 89.6197 15.04C96.5999 14.8286 103.738 18.0734 107.554 26.0744C121.072 27.5435 123.217 38.525 123.217 46.3885C123.217 58.3847 110.276 67.6222 98.4711 63.9652C98.4711 63.9652 97.4514 63.6693 97.4514 62.8977C97.4514 61.9994 98.4711 62.0205 98.4711 62.0205C98.4711 62.0205 109.751 62.475 109.751 49.3268C109.751 41.0827 102.34 35.9672 94.3818 36.3054C86.5502 36.6331 78.2139 43.6194 78.2139 55.4358ZM92.1532 41.6957C98.3239 39.4128 106.818 42.9746 106.271 48.5341C103.401 43.1226 93.9402 43.6194 91.2176 49.8341C89.399 54.7277 94.5184 58.8497 96.6524 59.0611C95.5486 59.3782 85.2782 59.6741 86.2137 48.9251C86.7394 45.0145 89.3149 42.7421 92.1532 41.6957Z" fill="white"/>
<path d="M41.8379 125.956V104.248H37.5691L35 104.952V107.157H37.1279V125.956H41.8379Z" fill="white"/>
<path d="M42.7202 105.657V107.027H45.6007L43.343 125.956H48.2995L50.5572 107.092H54.5147V125.956H61.3526V123.803H59.0949V107.34H60.5351L61.4694 106.4V104.248H57.6547V105.579H50.8038V104.248H45.8602V105.644L42.7202 105.657Z" fill="white"/>
<path d="M83.0212 105.513V104.248H78.7005L78.2983 105.513H75.7811V107.157H77.7922L77.1954 109.049L75.7811 108.775V110.431L76.7153 110.614L75.7811 113.602V114.789H80.2964L81.2696 111.501L84.0203 112.036V110.366L81.7237 109.923L82.5411 107.157H85.3178V114.097L86.0055 114.789H90.962V105.513H83.0212Z" fill="white"/>
<path d="M74.3277 107.222V105.513H73.4324V104.248H68.2943L68.3072 105.513H64.3887V107.222H68.3072L68.3202 109.297H64.3887V111.005H68.3332L68.3462 113.275H64.3887V114.789H72.7188L73.4324 114.071V111.005H74.3277V109.297H73.4324V107.222H74.3277Z" fill="white"/>
<path d="M74.1071 116.68L74.3277 116.106H68.6965L68.45 116.68H64.3887V118.624H67.6325L65.0505 124.716V126.086H70.5779L73.3805 118.624H85.3826V124.012H82.4632V126.086H90.1185L90.9619 125.238V116.68H74.1071Z" fill="white"/>
<path d="M107.492 106.361V105.044H98.6952V104.248H95.633L94.7247 105.161V106.361H96.8267L95.9314 108.07H93.8554V109.297H95.2827L93.8554 112.036V113.08H99.4996L100.966 109.297H102.445L103.587 113.08H107.492V111.801L106.675 109.297H107.492V108.07H101.433L102.095 106.361H107.492Z" fill="white"/>
<path d="M108.907 104.248V113.145H118.716L120.104 111.749V104.248H108.907ZM116.432 110.588L115.589 111.436H112.631V105.8H116.432V110.588Z" fill="white"/>
<path d="M93.8554 114.789V126.086H119.209L120.078 125.212V114.789H93.8554ZM114.175 123.79H99.7332V120.698H114.175V123.79ZM114.175 118.715H99.7332V116.302H114.175V118.715Z" fill="white"/>
<path d="M148.987 104H123.27V106.361H148.987V104Z" fill="white"/>
<path d="M149 111.671V109.296H123.27V111.671H126.229L123.53 123.79V126.086H148.689L147.806 117.059H141.526L142.409 124.129H129.797L132.34 111.671H149Z" fill="white"/>
</svg>
