<svg width="36" height="36" viewBox="0 0 36 36" fill="none" xmlns="http://www.w3.org/2000/svg">
<rect x="9" y="9" width="7" height="7" rx="1" stroke="#333333" stroke-width="2"/>
<rect x="11.5" y="11.5" width="2" height="2" fill="#1168FF"/>
<rect x="20" y="9" width="7" height="7" rx="1" stroke="#333333" stroke-width="2"/>
<rect x="22.5" y="11.5" width="2" height="2" fill="#1168FF"/>
<rect x="9" y="20" width="7" height="7" rx="1" stroke="#333333" stroke-width="2"/>
<rect x="11.5" y="22.5" width="2" height="2" fill="#1168FF"/>
<rect x="22.5" y="26" width="2" height="2" fill="#1168FF"/>
<rect x="26" y="26" width="2" height="2" fill="#1168FF"/>
<path fill-rule="evenodd" clip-rule="evenodd" d="M19 20C19 19.4822 19.3935 19.0564 19.8978 19.0052C19.9314 19.0017 19.9655 19 20 19H23.5C24.0523 19 24.5 19.4477 24.5 20L24.5 22.5L26 22.5V20C26 19.4477 26.4477 19 27 19C27.5523 19 28 19.4477 28 20V23.5C28 24.0523 27.5523 24.5 27 24.5H23.5C22.9477 24.5 22.5 24.0523 22.5 23.5V21L21 21V27C21 27.5523 20.5523 28 20 28C19.4477 28 19 27.5523 19 27V20Z" fill="#333333"/>
</svg>
